<?xml version="1.0" encoding="utf-8"?>
<!-- Generator: Adobe Illustrator 22.1.0, SVG Export Plug-In . SVG Version: 6.00 Build 0)  -->
<svg version="1.1" id="Artwork" xmlns="http://www.w3.org/2000/svg" xmlns:xlink="http://www.w3.org/1999/xlink" x="0px" y="0px"
	 viewBox="0 0 24 24" enable-background="new 0 0 24 24" xml:space="preserve">
<rect fill="#F9F9F9" width="24" height="24"/>
<circle fill="#FFFFFF" cx="12" cy="12" r="10"/>
<g>
	<path fill="#23282D" d="M5.5,11.1H4V5.3H2.1V4h5.4v1.3H5.5V11.1z"/>
	<path fill="#23282D" d="M14.4,11.1h-1.5V8h-2.8v3.1H8.6V4h1.5v2.8h2.8V4h1.5V11.1z"/>
	<path fill="#23282D" d="M21.9,11.1h-1.7l-1.7-2.7l-1.7,2.7h-1.6l2.4-3.7L15.4,4h1.7l1.5,2.6L20.1,4h1.6l-2.2,3.5L21.9,11.1z"/>
	<path fill="#23282D" d="M11.4,14.4c0,0.4-0.1,0.8-0.4,1.1s-0.6,0.5-1.1,0.6v0c0.6,0.1,1,0.2,1.3,0.5c0.3,0.3,0.4,0.6,0.4,1.1
		c0,0.7-0.2,1.2-0.7,1.6C10.4,19.9,9.7,20,8.8,20c-0.8,0-1.5-0.1-2-0.4v-1.3c0.3,0.1,0.6,0.3,0.9,0.3c0.3,0.1,0.7,0.1,1,0.1
		c0.5,0,0.9-0.1,1.1-0.3c0.2-0.2,0.4-0.4,0.4-0.8c0-0.3-0.1-0.6-0.4-0.7c-0.3-0.1-0.7-0.2-1.3-0.2H7.8v-1.2h0.5c0.6,0,1-0.1,1.2-0.2
		c0.3-0.1,0.4-0.4,0.4-0.7c0-0.5-0.3-0.8-1-0.8c-0.2,0-0.5,0-0.7,0.1c-0.2,0.1-0.5,0.2-0.8,0.4l-0.7-1C7.4,13,8.1,12.7,9,12.7
		c0.7,0,1.3,0.1,1.7,0.4S11.4,13.9,11.4,14.4z"/>
	<path fill="#23282D" d="M14.8,12.8c0.7,0,1.2,0.2,1.6,0.5c0.4,0.3,0.6,0.7,0.6,1.2c0,0.4-0.1,0.7-0.3,1c-0.2,0.3-0.5,0.5-1,0.8
		c0.5,0.3,0.9,0.6,1.1,0.9s0.3,0.6,0.3,1c0,0.6-0.2,1.1-0.7,1.4c-0.5,0.4-1.1,0.5-1.8,0.5c-0.8,0-1.4-0.2-1.8-0.5s-0.7-0.8-0.7-1.4
		c0-0.4,0.1-0.8,0.3-1.1c0.2-0.3,0.6-0.6,1-0.8c-0.4-0.3-0.7-0.5-0.9-0.8s-0.3-0.6-0.3-1c0-0.5,0.2-0.9,0.6-1.2
		C13.6,12.9,14.2,12.8,14.8,12.8z M13.7,18.1c0,0.3,0.1,0.5,0.3,0.7s0.5,0.2,0.8,0.2c0.4,0,0.7-0.1,0.8-0.2s0.3-0.4,0.3-0.6
		c0-0.2-0.1-0.4-0.3-0.6c-0.2-0.2-0.5-0.4-0.9-0.6C14.1,17.2,13.7,17.6,13.7,18.1z M14.8,13.9c-0.3,0-0.5,0.1-0.6,0.2
		c-0.2,0.1-0.2,0.3-0.2,0.5c0,0.2,0.1,0.4,0.2,0.5c0.1,0.2,0.4,0.3,0.7,0.5c0.3-0.1,0.5-0.3,0.7-0.5s0.2-0.3,0.2-0.5
		c0-0.2-0.1-0.4-0.2-0.5S15.1,13.9,14.8,13.9z"/>
</g>
</svg>
